# xmcd
#
# Track frame offsets: 
#        150
#        22042
#        39134
#        56028
#        72938
#        91856
#        104240
#        108969
#        125211
#        127004
#        147174
#        168093
#        180341
#        193192
#        208614
#        227469
#        243372
#        260543
#
# Disc length: 3645 seconds
#
# Revision: 1
# Processed by: cddbd v1.5.2PL0 Copyright (c) Steve Scherf et al.
# Submitted via: ExactAudioCopy v0.95a4
#
DISCID=000e3b12
DTITLE=Katy Moffatt - Up Close and Personal
DYEAR=2005
DGENRE=Folk
TTITLE0=This Heart Stops for Railway Crosses
TTITLE1=Ameilia's Railroad Flat
TTITLE2=My Man's Been Laid Off
TTITLE3=Walkin' on the Moon
TTITLE4=Further
TTITLE5=Ruin This Romance
TTITLE6=Intro to Dance Me Outside
TTITLE7=Dance Me Outside
TTITLE8=Intro to Papacita (Mama Rita)
TTITLE9=Papacita (Mama Rita)
TTITLE10=Borderline
TTITLE11=Love Me Like a Man
TTITLE12=Crazy, Dangerous and Blue
TTITLE13=Never Be Alone Again
TTITLE14=You Don't Know Me
TTITLE15=Sojourner Truth (Ain't I a Woman)
TTITLE16=I Know the Difference Now
TTITLE17=Waitin' for a Train
EXTD=
EXTT0=
EXTT1=
EXTT2=
EXTT3=
EXTT4=
EXTT5=
EXTT6=
EXTT7=
EXTT8=
EXTT9=
EXTT10=
EXTT11=
EXTT12=
EXTT13=
EXTT14=
EXTT15=
EXTT16=
EXTT17=
PLAYORDER=
